<?xml version="1.0" encoding="UTF-8" standalone="no"?>
<!DOCTYPE svg PUBLIC "-//W3C//DTD SVG 1.1//EN" "http://www.w3.org/Graphics/SVG/1.1/DTD/svg11.dtd">
<svg width="100%" height="100%" viewBox="0 0 30 30" version="1.1" xmlns="http://www.w3.org/2000/svg" xmlns:xlink="http://www.w3.org/1999/xlink" xml:space="preserve" xmlns:serif="http://www.serif.com/" style="fill-rule:evenodd;clip-rule:evenodd;stroke-linejoin:round;stroke-miterlimit:2;">
    <g transform="matrix(1,0,0,1,-0.99875,-1.5)">
        <g transform="matrix(1.25,0,0,1.25,-1071.57,-2038.95)">
            <path d="M880.575,1648.36L879.055,1648.36L879.055,1647.93C879.055,1647.07 878.355,1646.36 877.485,1646.36L875.625,1646.36C874.755,1646.36 874.055,1647.07 874.055,1647.93L874.055,1648.36L871.055,1648.36L871.055,1640.24C872.785,1639.79 874.055,1638.22 874.055,1636.36C874.055,1634.15 872.265,1632.36 870.055,1632.36C867.845,1632.36 866.055,1634.15 866.055,1636.36C866.055,1638.22 867.325,1639.79 869.055,1640.24L869.055,1648.36L866.055,1648.36L866.055,1648.25C866.055,1647.39 865.355,1646.36 864.485,1646.36L862.625,1646.36C861.755,1646.36 861.055,1647.07 861.055,1647.93L861.055,1648.36L859.535,1648.36C858.675,1648.36 858.055,1649.07 858.055,1649.93L858.055,1654.79C858.055,1655.65 858.755,1656.36 859.625,1656.36L880.485,1656.36C881.355,1656.36 882.055,1655.65 882.055,1654.79L882.055,1649.93C882.055,1649.07 881.435,1648.36 880.575,1648.36ZM862.055,1647.86C862.055,1647.58 862.275,1647.36 862.555,1647.36L864.555,1647.36C864.835,1647.36 865.055,1647.58 865.055,1647.86L865.055,1648.86C865.055,1649.14 864.835,1649.36 864.555,1649.36L862.555,1649.36C862.275,1649.36 862.055,1649.14 862.055,1648.86L862.055,1647.86ZM875.055,1647.86C875.055,1647.58 875.275,1647.36 875.555,1647.36L877.555,1647.36C877.835,1647.36 878.055,1647.58 878.055,1647.86L878.055,1648.86C878.055,1649.14 877.835,1649.36 877.555,1649.36L875.555,1649.36C875.275,1649.36 875.055,1649.14 875.055,1648.86L875.055,1647.86Z"/>
        </g>
    </g>
</svg>
